# xmcd
#
# Track frame offsets:
# 150
# 20171
# 41911
# 59768
# 75478
# 88865
# 105685
# 135527
# 147256
# 168436
# 184266
# 202215
# 218194
# 237501
# 255513
# 260612
# 279682
# 305634
# 325591
#
# Disc length: 4680 seconds
#
#
# Revision: 0
# Processed by: cddbd v1.5.2PL0 Copyright (c) Steve Scherf et al.
# Submitted via: FreeRIP 2.35 
#
DISCID=2a124613
DTITLE=Moody Blues - Collected
DYEAR=1900
DGENRE=Blues
TTITLE0=Nights in White Satin
TTITLE1=Tuesday Afternoon (Forever Afternoon)
TTITLE2=Morning: Another Morning
TTITLE3=Voices in the Sky
TTITLE4=Dr. Livingstone, I Presume
TTITLE5=Ride My See-Saw
TTITLE6=Legend of a Mind
TTITLE7=Lovely to See You
TTITLE8=Never Comes the Day
TTITLE9=Are You Sitting Comfortably
TTITLE10=Dear Diary
TTITLE11=Gypsy (Of a Strange and Distant Time)
TTITLE12=Watching and Waiting
TTITLE13=Higher and Higher
TTITLE14=I Never Thought I'd Live to Be a Hundred
TTITLE15=Candle of Life
TTITLE16=Melancholy Man
TTITLE17=Dawnings Is the Day
TTITLE18=Question
EXTD=
EXTT0=
EXTT1=
EXTT2=
EXTT3=
EXTT4=
EXTT5=
EXTT6=
EXTT7=
EXTT8=
EXTT9=
EXTT10=
EXTT11=
EXTT12=
EXTT13=
EXTT14=
EXTT15=
EXTT16=
EXTT17=
EXTT18=
PLAYORDER=
